<svg version="1.1" xmlns="http://www.w3.org/2000/svg" xmlns:xlink="http://www.w3.org/1999/xlink" data-browser="Chrome[65.0]" preserveAspectRatio="xMidYMid meet" viewBox="0 0 187 181"><g id="logo__item--business" class="logo__item">
                <g class="logo__item__inner" transform="translate(28.7265625 170.91663108333705) scale(1 1) rotate(0 0 0)">
                    <text dy="" dominant-baseline="auto" alignment-baseline="auto" font-family="'Lora-Regular'" font-size="32px" fill="#86162D" letter-spacing="0" font-weight="normal" font-style="normal">Hopedin</text>
                </g>
            </g><g id="logo__item--logo_0" class="logo__item">
    <g class="logo__item__inner" transform="translate(24.84604341527927 22) scale(0.8797653368438987 0.8797653368438987) rotate(0 0 0)">
        
<g>
	<path fill="none" d="M80,26H46c-0.9,0-1.5,0.2-2.2,0.8c-0.7,0.7-0.8,1.3-0.8,2.2V64h37V26z M75,53.9c0,0.2,0,0.5-0.2,0.6   c-0.2,0.2-0.4,0.2-0.6,0.2c-0.1,0-7.1-1-10.7,0.8c-0.1,0.1-0.3,0.2-0.6,0.4c-0.6,0.5-1.5,1.1-2.5,1.1h0c-1,0-1.8-0.6-2.4-1.1   c-0.2-0.2-0.4-0.3-0.6-0.4c-3.5-1.9-10.7-0.9-10.8-0.9c-0.2,0-0.4,0-0.5-0.2C46,54.3,46,54.1,46,53.9V35.4c0-0.2,0-0.5,0.2-0.6   c0.2-0.2,0.3-0.2,0.6-0.1c1,0.2,2.2,0.6,3.2,0.7v-1.7c0-1.4,0.9-2.2,2.2-2.2c2.3,0,6.9,2.9,8.3,4.1c1.4-1.1,6.2-3.9,8.5-3.9   c1.3,0,2.1,0.8,2.1,2v1.6l3.3-0.8c0.2-0.1,0.4,0,0.6,0.2c0.2,0.2,0.2,0.4,0.2,0.6V53.9z"></path>
	<path fill="none" d="M91.9,99.8c1.1-0.8,2.2-1.6,3.4-2.6l-1.8-6c0,0-3.5,0.6-5.1-0.1c-1.6-0.7-0.6-2.3-1.2-2.9   c-0.6-0.6-0.9-0.8-0.9-0.8l0.6-1.1l-0.6-0.9l1.1-1.7c0,0-0.8,0-1.3-0.6c-0.6-0.6,0.3-1,0.3-1c1.6-1.1,1.5-2.9,1.5-2.9   c0-0.7-0.3-1.3-0.3-1.3c-0.2-6.1,4.5-7.5,5.9-8c0.7-0.2,3.3-0.6,6.1-0.3c0.2,0,0.3,0,0.5,0c2.6,0,5,1.2,6.6,3.1   c0.2,0.2,0.4,0.5,0.6,0.8c1,1.4,1.5,3.2,1.5,5.1c0,1.7-0.5,3.3-1.3,4.7c-0.4,0.9-0.9,1.7-1.2,2.4c1.2-1.9,2.2-4,3.1-6.3   c1.2-3,1.7-6.1,1.7-9.1V64H80v43.1c0-0.1,0.4-0.3,0.8-0.5c0.9-0.5,2.4-1.4,4.7-2.7C87.7,102.7,89.8,101.3,91.9,99.8z"></path>
	<path fill="none" d="M62,51.1c2-1,5-1.3,7-1.3V33.7c0-0.3,0.1-0.4-0.3-0.4c-1.9,0-5.8,2.6-7,3.4l0.3,0.4V51.1z"></path>
	<path fill="none" d="M59,36.7c-1-0.9-5-3.6-6.8-3.6c-0.3,0-0.2,0-0.2,0.6v16.1c2,0,5,0.3,7,1.3V36.7z"></path>
	<path fill="none" d="M71,51h-1c-2.2,0-6.2,0.4-8.7,1.9L61,53.2v0.5l-0.5-0.3L60,53.8v-0.6l-0.2-0.3c-2.6-1.5-6.6-1.9-8.7-1.9H50V37   c-1-0.1-2-0.3-3-0.5V53c3-0.2,7.9-0.5,11.1,1.2c0.3,0.1,0.6,0.6,0.9,0.8c0.4,0.4,1.1,1,1.5,1c0,0,0,0,0,0c0.4,0,1-0.7,1.5-1.1   c0.3-0.2,0.8-0.6,1-0.7c3.2-1.7,8-1.5,11-1.2V36.3L71,37V51z"></path>
	<path fill="#86162D" d="M108.7,78.6c0-1.9-0.6-3.6-1.5-5.1c-0.2-0.3-0.4-0.5-0.6-0.8c-1.6-1.9-3.9-3.1-6.6-3.1c-0.2,0-0.3,0-0.5,0   c-2.8-0.3-5.4,0.1-6.1,0.3c-1.4,0.5-6.1,1.9-5.9,8c0,0,0.3,0.6,0.3,1.3c0,0,0.1,1.9-1.5,2.9c0,0-0.8,0.5-0.3,1   c0.6,0.6,1.3,0.6,1.3,0.6l-1.1,1.7l0.6,0.9l-0.6,1.1c0,0,0.3,0.3,0.9,0.8c0.6,0.6-0.4,2.2,1.2,2.9c1.6,0.7,5.1,0.1,5.1,0.1l1.8,6   c1.1-0.9,2.2-1.9,3.4-3c2.4-2.2,4.6-4.5,6.3-6.8c0.4-0.6,0.8-1.1,1.2-1.7c0.4-0.8,0.8-1.6,1.2-2.4   C108.2,81.9,108.7,80.3,108.7,78.6z"></path>
	<path fill="#86162D" d="M97.9,133.1c-3.3-1-6.5-0.2-7.1,1.9c-0.6,2.1,1.5,4.6,4.9,5.6c3.3,1,9.1-1.3,9.1-1.3   S101.2,134.1,97.9,133.1z"></path>
	<path fill="#86162D" d="M91.1,124.2c-1.8,2.2-2.2,5-0.8,6.1c1.4,1.1,4,0.2,5.8-2c1.8-2.2,1.8-7.4,1.8-7.4S92.9,122,91.1,124.2z"></path>
	<path fill="#86162D" d="M100.2,120.8c-1.2,2.6-0.8,5.3,0.8,6.1c1.6,0.7,3.9-0.8,5.1-3.4c1.2-2.6-0.1-7.6-0.1-7.6   S101.4,118.2,100.2,120.8z"></path>
	<path fill="#86162D" d="M109.9,115.2c-1,2.7-0.5,5.4,1.1,6c1.7,0.7,3.9-1,4.9-3.7c1-2.7-0.5-7.6-0.5-7.6S110.9,112.5,109.9,115.2z"></path>
	<path fill="#86162D" d="M118.5,108.7c-0.5,2.5,0.4,4.8,1.9,5c1.6,0.3,3.2-1.5,3.7-4c0.5-2.5-1.7-6.5-1.7-6.5S119,106.2,118.5,108.7   z"></path>
	<path fill="#86162D" d="M127,105.9c1.4,0.1,2.8-1.6,3-3.9c0.2-2.3-2.1-5.8-2.1-5.8s-2.9,3-3.1,5.3   C124.6,103.8,125.6,105.8,127,105.9z"></path>
	<path fill="#86162D" d="M131.9,97.3c1.2-0.1,2.1-1.8,1.9-3.8c-0.2-2-2.7-4.5-2.7-4.5s-1.9,3-1.7,4.9   C129.6,95.9,130.7,97.4,131.9,97.3z"></path>
	<path fill="#86162D" d="M134.7,89.5c1.2-0.1,2.1-1.8,1.9-3.8c-0.2-2-2.7-4.5-2.7-4.5s-1.9,3-1.8,4.9   C132.3,88.1,133.4,89.6,134.7,89.5z"></path>
	<path fill="#86162D" d="M109,130.1c-3.4-0.4-6.4,1-6.7,3.1c-0.3,2.1,2.3,4.2,5.8,4.6c3.5,0.4,8.7-2.9,8.7-2.9   S112.5,130.5,109,130.1z"></path>
	<path fill="#86162D" d="M118,124.3c-3.5,0.3-6.1,2.3-5.9,4.5c0.2,2.2,3.2,3.6,6.6,3.3c3.5-0.3,7.9-4.6,7.9-4.6   S121.4,123.9,118,124.3z"></path>
	<path fill="#86162D" d="M126,117.3c-2.7,1.1-4.4,3.3-3.8,5c0.7,1.7,3.4,2.2,6.1,1.2c2.7-1.1,5.4-5.6,5.4-5.6S128.8,116.2,126,117.3   z"></path>
	<path fill="#86162D" d="M131.9,108c-2.6,1.6-3.8,4.2-2.8,5.8c1,1.6,3.9,1.6,6.4,0c2.6-1.6,4.3-6.7,4.3-6.7S134.5,106.4,131.9,108z"></path>
	<path fill="#86162D" d="M136.9,99.1c-2.1,1.7-3,4.1-2,5.4c1,1.3,3.6,1,5.7-0.6c2.1-1.7,3.2-6.4,3.2-6.4S139,97.4,136.9,99.1z"></path>
	<path fill="#86162D" d="M142.8,94.5c1.6-1.5,2.3-5.4,2.3-5.4s-4,0.2-5.6,1.7c-1.6,1.5-2.2,3.5-1.3,4.6   C139.1,96.3,141.2,96,142.8,94.5z"></path>
	<path fill="#86162D" d="M139,88.4c1.1,0.8,3-0.1,4.3-1.9c1.2-1.8,0.9-5.7,0.9-5.7s-3.8,1.1-5,2.9C138,85.6,137.9,87.7,139,88.4z"></path>
	<path fill="#86162D" d="M117.6,120.5c5.3-4.4,10-9.5,13.6-15.3c1.8-2.9,3.4-6,4.5-9.2c1.1-3.2,1.8-7.1,1.5-10.1h-0.2   c0.1,7-3,13.2-6.7,18.7c-3.8,5.6-8.5,10.4-13.8,14.6c-5.3,4.1-11.2,7.4-17.4,9.8c-6.2,2.5-12.9,3.7-19.7,3.3l0,0.2   c6.7,1.6,13.9,0.6,20.4-1.6C106.4,128.7,112.3,124.9,117.6,120.5z"></path>
	<path fill="#86162D" d="M55.9,133.1c-3.3,1-6.8,6.2-6.8,6.2s5.8,2.3,9.1,1.3c3.3-1,5.5-3.5,4.9-5.6   C62.5,132.9,59.2,132.1,55.9,133.1z"></path>
	<path fill="#86162D" d="M63.5,130.3c1.4-1.1,1-3.9-0.8-6.1c-1.8-2.2-6.9-3.3-6.9-3.3s0,5.2,1.8,7.4   C59.5,130.5,62.1,131.4,63.5,130.3z"></path>
	<path fill="#86162D" d="M52.8,126.9c1.6-0.7,2-3.5,0.8-6.1c-1.2-2.6-5.8-5-5.8-5s-1.3,5-0.1,7.6C48.9,126.1,51.1,127.6,52.8,126.9z"></path>
	<path fill="#86162D" d="M42.8,121.2c1.7-0.6,2.2-3.3,1.1-6c-1-2.7-5.5-5.3-5.5-5.3s-1.6,4.9-0.5,7.6   C38.9,120.2,41.1,121.9,42.8,121.2z"></path>
	<path fill="#86162D" d="M33.3,113.7c1.5-0.3,2.4-2.5,1.9-5c-0.5-2.5-3.9-5.4-3.9-5.4s-2.2,4-1.7,6.5   C30.1,112.2,31.7,114,33.3,113.7z"></path>
	<path fill="#86162D" d="M23.7,102c0.2,2.3,1.6,4.1,3,3.9c1.4-0.1,2.4-2.1,2.2-4.4c-0.2-2.3-3.1-5.3-3.1-5.3S23.5,99.7,23.7,102z"></path>
	<path fill="#86162D" d="M21.8,97.3c1.2,0.1,2.4-1.4,2.6-3.3c0.2-2-1.7-4.9-1.7-4.9s-2.5,2.5-2.7,4.5C19.8,95.5,20.6,97.2,21.8,97.3   z"></path>
	<path fill="#86162D" d="M19.1,89.5c1.2,0.1,2.4-1.4,2.5-3.3c0.2-2-1.8-4.9-1.8-4.9s-2.5,2.5-2.6,4.5C17.1,87.7,17.9,89.4,19.1,89.5   z"></path>
	<path fill="#86162D" d="M51.5,133.2c-0.3-2.1-3.3-3.5-6.7-3.1c-3.5,0.4-7.8,4.9-7.8,4.9s5.3,3.3,8.7,2.9   C49.1,137.4,51.7,135.3,51.5,133.2z"></path>
	<path fill="#86162D" d="M41.7,128.7c0.2-2.1-2.4-4.2-5.9-4.5c-3.5-0.3-8.6,3.1-8.6,3.1s4.5,4.3,7.9,4.6   C38.5,132.4,41.5,130.9,41.7,128.7z"></path>
	<path fill="#86162D" d="M31.5,122.3c0.7-1.7-1-3.9-3.8-5c-2.7-1.1-7.8,0.6-7.8,0.6s2.7,4.6,5.4,5.6C28.1,124.5,30.9,124,31.5,122.3   z"></path>
	<path fill="#86162D" d="M24.7,113.8c1-1.6-0.3-4.2-2.8-5.8c-2.6-1.6-7.9-1-7.9-1s1.8,5.1,4.3,6.7C20.8,115.4,23.7,115.4,24.7,113.8   z"></path>
	<path fill="#86162D" d="M18.9,104.5c1-1.3,0.1-3.7-2-5.4c-2.1-1.7-7-1.6-7-1.6s1.1,4.7,3.2,6.4C15.3,105.5,17.8,105.8,18.9,104.5z"></path>
	<path fill="#86162D" d="M15.6,95.3c0.9-1,0.4-3.1-1.3-4.6C12.7,89.3,8.7,89,8.7,89S9.3,93,11,94.5C12.6,96,14.7,96.3,15.6,95.3z"></path>
	<path fill="#86162D" d="M14.8,88.4c1.1-0.8,1-2.8-0.2-4.7c-1.3-1.8-5-2.9-5-2.9s-0.3,3.9,0.9,5.7C11.7,88.4,13.6,89.2,14.8,88.4z"></path>
	<path fill="#86162D" d="M54.6,129.1c-6.2-2.4-12.1-5.7-17.4-9.8c-5.3-4.1-10-9-13.8-14.6C19.7,99.2,16.6,93,16.7,86h-0.2   c-0.2,3,0.4,6.8,1.5,10.1c1.1,3.2,2.7,6.3,4.5,9.2c3.7,5.8,8.4,10.9,13.7,15.3c5.3,4.4,11.2,8.2,17.7,10.5   c6.5,2.2,13.7,3.2,20.4,1.6l0-0.2C67.5,132.8,60.8,131.6,54.6,129.1z"></path>
	<path fill="#86162D" d="M74.3,34.5L71,35.3v-1.6c0-1.2-0.8-2-2.1-2c-2.3,0-7,2.7-8.4,3.9c-1.4-1.1-6-4.1-8.3-4.1   c-1.3,0-2.2,0.8-2.2,2.2v1.7c-1-0.1-2.3-0.5-3.2-0.7c-0.2-0.1-0.4,0-0.6,0.1C46,35,46,35.2,46,35.4v18.5c0,0.2,0,0.5,0.2,0.6   c0.2,0.2,0.4,0.2,0.6,0.2c0.1,0,7.2-1,10.8,0.9c0.1,0.1,0.3,0.2,0.5,0.3c0.6,0.5,1.4,1.1,2.4,1.1h0c1,0,1.9-0.6,2.5-1.1   c0.2-0.2,0.4-0.3,0.6-0.4c3.5-1.9,10.6-0.8,10.7-0.8c0.2,0,0.4,0,0.5-0.2c0.2-0.2,0.2-0.4,0.2-0.6V35.3c0-0.2,0-0.5-0.2-0.6   C74.6,34.5,74.5,34.5,74.3,34.5z M68.7,33.3c0.4,0,0.3,0.1,0.3,0.4v16.1c-2,0-5,0.3-7,1.3V37.2l-0.3-0.4   C62.9,35.9,66.9,33.3,68.7,33.3z M52,33.7c0-0.6-0.2-0.6,0.2-0.6c1.9,0,5.8,2.7,6.8,3.6v14.3c-2-1-5-1.3-7-1.3V33.7z M74,53   c-3-0.2-7.8-0.6-11,1.1c-0.3,0.1-0.7,0.6-0.9,0.8C61.6,55.3,61,56,60.5,56c0,0,0,0,0,0c-0.4,0-1-0.7-1.4-1c-0.3-0.2-0.8-0.6-1-0.7   C54.9,52.6,50,52.8,47,53V36.5c1,0.2,2,0.5,3,0.5v14h1.1c2.1,0,6.1,0.4,8.7,1.9l0.2,0.3v0.6l0.5-0.3l0.5,0.3v-0.5l0.2-0.3   c2.6-1.5,6.6-1.9,8.7-1.9h1V37l3-0.6V53z"></path>
	<path fill="#1ea8c9" d="M111,64V29.1c0-0.9-0.2-1.6-0.9-2.2c-0.7-0.7-1.4-0.8-2.3-0.8H80v38H111z M91.1,38.3c0.8,1.4,0.9,2.4,1,3.9   c2.5-3,5.1-7.1,4.5-10.8c0,0,4.7,1.5,6.6,8.7c1.1-1,1-3.1,0.5-4.3c1.7,1.2,11.3,12-1.5,19.2c2.4-4.7,0.6-11-3.5-13.9   c0.3,1.3-0.1,4.5-1.9,6.6c0.4-2.1-0.6-3.5-0.6-3.5s-0.3,1.9-1.7,3.9c-1.2,1.8-2.1,3.7-0.5,6.9c-5-2.8-6.3-5.5-5.6-9.2   C88.9,43.2,91,41,91.1,38.3z"></path>
	<path fill="#60a0f4" d="M43,64v6.3c0,3.1,0.4,6.1,1.6,9.1c1.2,3,2.6,5.7,4.3,8c1.8,2.3,3.8,4.6,6.3,6.8c2.4,2.2,4.7,4.1,6.8,5.5   c2.1,1.5,4.2,2.9,6.5,4.2c2.3,1.3,3.8,2.2,4.8,2.7c0.9,0.5,1.7,0.8,2.3,1.1c0.4,0.2,0.9,0.3,1.4,0.3c0.5,0,1.2-0.1,1.6-0.3   c0.4-0.2,0.5-0.4,1.5-0.6V64H43z M68,89.6c0,0.3,0.2,0.4-0.1,0.4H57.3C57,90,57,89.9,57,89.6v-0.4c0-0.3,0-0.2,0.3-0.2H60v-3.1   c-1-0.8-2.9-2.4-2.9-4.4c0-2,1.9-3.7,2.9-4.4V74h3v-4h-0.1h-0.2H65h-0.2H64v4c0,0,0.5,0,0.5,0H65v0.9c0,0.2,0.2,0.5,0.2,0.7   c0,0.3-0.2,0.5-0.2,0.7V77h3v3h-1v3h-2v-3h-2.7c0,0-1.8,0-1.8,1.7c0,1.7,1.6,2.3,2,2.3h0h5.6c0.2,0,0.4,0.3,0.4,0.5   c0,0.2-0.2,0.5-0.4,0.5H66c-0.7,0-2,1-3,1.2V89h4.9c0.3,0,0.1-0.1,0.1,0.2V89.6z M67,82.9l-0.2,0.3h-1.3l-0.2-0.3H67z"></path>
	<path fill="#163962" d="M88.3,116.8c3-1.8,5.9-3.6,8.7-5.6c2.8-2,5.8-4.5,9.1-7.4c3.3-3,6.1-6.1,8.5-9.2c2.4-3.2,4.3-6.8,5.9-10.8   c1.6-4.1,2.4-8.2,2.4-12.3V16c0-1.2-0.4-2.5-1.3-3.4c-0.9-0.9-1.9-1.6-3.2-1.6H35.3c-1.3,0-2.2,0.6-3.1,1.6   C31.3,13.5,31,14.7,31,16v55.5c0,4.1,0.6,8.2,2.3,12.3c1.6,4.1,3.5,7.7,5.9,10.8c2.4,3.2,5.2,6.2,8.5,9.2c3.3,3,6.3,5.5,9.1,7.4   c2.8,2,5.7,3.8,8.7,5.6c3,1.8,5.2,2.9,6.5,3.6c1.3,0.6,2.3,1.1,3.1,1.4c0.6,0.3,1.2,0.4,1.9,0.4c0.7,0,1.3-0.1,1.9-0.4   c0.8-0.3,1.8-0.8,3.1-1.4C83.1,119.8,85.3,118.6,88.3,116.8z M79.6,107.1c-0.5,0.2-1,0.4-1.3,0.6c-0.4,0.2-0.9,0.3-1.4,0.3   c-0.5,0-1-0.1-1.4-0.3c-0.6-0.3-1.3-0.6-2.3-1.1c-0.9-0.5-2.5-1.4-4.8-2.7c-2.3-1.3-4.4-2.7-6.5-4.2c-2.1-1.5-4.3-3.3-6.8-5.5   c-2.4-2.2-4.6-4.5-6.3-6.8c-1.8-2.3-3-5-4.2-8c-1.2-3-1.6-6.1-1.6-9.1v-5.8V29.1c0-0.9,0.1-1.6,0.8-2.2c0.7-0.7,1.3-0.8,2.2-0.8   h33.6h28.2c0.9,0,1.6,0.2,2.3,0.8c0.7,0.7,0.9,1.3,0.9,2.2v35.4v5.8c0,3.1-0.5,6.1-1.7,9.1c-0.9,2.3-1.9,4.4-3.2,6.3   c-0.4,0.6-0.8,1.2-1.2,1.7c-1.8,2.3-3.9,4.6-6.3,6.8c-1.2,1.1-2.3,2.1-3.4,3c-1.2,1-2.3,1.8-3.3,2.6c-2.1,1.5-4.2,2.9-6.5,4.2   c-2.3,1.3-3.9,2.2-4.8,2.7C80.2,106.8,79.9,107,79.6,107.1z"></path>
	<path fill="#FFFFFF" d="M93.9,55c-1.6-3.3-0.7-5.2,0.5-6.9c1.3-1.9,1.7-3.9,1.7-3.9s1,1.4,0.6,3.5c1.8-2.1,2.2-5.3,1.9-6.6   c4.2,2.9,5.9,9.2,3.5,13.9c12.8-7.2,3.2-18,1.5-19.2c0.6,1.2,0.7,3.3-0.5,4.3c-1.9-7.2-6.6-8.7-6.6-8.7c0.6,3.7-2,7.8-4.5,10.8   c-0.1-1.5-0.2-2.5-1-3.9c-0.2,2.7-2.2,4.9-2.8,7.6C87.6,49.5,88.9,52.2,93.9,55z"></path>
	<path fill="#FFFFFF" d="M67.9,89H63v-2.8c1-0.2,2.4-1.2,3-1.2h2.1c0.2,0,0.4-0.3,0.4-0.5c0-0.2-0.2-0.5-0.4-0.5h-5.6h0   c-0.4,0-2-0.6-2-2.3c0-1.7,1.8-1.7,1.8-1.7H65v3h2v-3h1v-3h-3v-0.7c0-0.2,0.2-0.5,0.2-0.7c0-0.3-0.2-0.5-0.2-0.7V74h-0.5   c0,0-0.5,0-0.5,0v-4h0.8H65h-2.3h0.2H63v4h-3v3.1c-1,0.7-2.9,2.4-2.9,4.4c0,2,1.9,3.6,2.9,4.4V89h-2.7C57,89,57,88.9,57,89.2v0.4   c0,0.3,0,0.4,0.3,0.4h10.6c0.3,0,0.1-0.1,0.1-0.4v-0.4C68,88.9,68.2,89,67.9,89z"></path>
	<polygon fill="#FFFFFF" points="66.8,83.3 67,82.9 65.4,82.9 65.5,83.3"></polygon>
</g>

    </g>
</g><g id="logo__item--shape_1" class="logo__item">
    <g class="logo__item__inner" transform="translate(-11.690792083740234 -22.12506103515625) scale(2.052255404005859 2.052255404005859) rotate(-1.4048513083821972 44.190794050981864 37.12506206791412)">
        
<g>
	<path fill="#c49003" d="M16.3,83.1C11.1,76.9,7.8,69,7,60.8C6.1,52.6,7.7,44,11.6,36.5c3.8-7.5,9.9-13.8,17.3-18.1   c7.4-4.2,16-6.2,24.5-5.8c8.5,0.5,16.8,3.4,23.7,8.5c6.8,5,12.2,12,15.2,19.9c3,7.9,3.6,16.5,1.9,24.6c-1.8,8.1-5.9,15.6-11.8,21.2   c5-6.3,8.4-13.8,9.4-21.6c1.1-7.8,0-15.7-3.1-22.8c-6-14.2-20.4-24.3-35.7-24.9c-7.6-0.5-15.3,1.3-22,4.9   c-6.7,3.6-12.4,9.2-16.2,15.9C11,45,9,52.8,9.3,60.7C9.5,68.5,12,76.3,16.3,83.1z"></path>
</g>

    </g>
</g></svg>